<svg width="121" height="121" fill="none" xmlns="http://www.w3.org/2000/svg"><path fill-rule="evenodd" clip-rule="evenodd" d="M72.916 12.139h-4.5c-.963 0-1.75-.785-1.75-1.755a1.75 1.75 0 011.75-1.753h4.5a1.754 1.754 0 010 3.508zm6.252 0h8.476c5.09 0 9.228 4.148 9.228 9.251 0 .97.787 1.754 1.75 1.754.961 0 1.748-.785 1.748-1.754 0-7.032-5.711-12.758-12.73-12.758h-8.476a1.75 1.75 0 00-1.75 1.753c0 .97.792 1.754 1.754 1.754zm31.713 56.687h-4.977l-3.717-36.843h.534a1.75 1.75 0 001.749-1.754v-4.722c0-.969-.787-1.753-1.749-1.753H87.894a1.75 1.75 0 00-1.749 1.753v4.722c0 .969.787 1.754 1.75 1.754h.69l-3.712 36.843h-3.245l-.001-9.642c0-.675-.39-1.293-1.002-1.582a1.756 1.756 0 00-1.859.224L64.26 69.699l.001-10.515c0-.675-.39-1.293-1.001-1.582a1.756 1.756 0 00-1.86.224L46.899 69.694v-10.51c0-.675-.39-1.293-.998-1.582a1.751 1.751 0 00-1.854.224L29.49 69.698V59.184a1.751 1.751 0 00-2.856-1.358L9.273 72.036a1.741 1.741 0 00-.643 1.354v37.487c0 .969.783 1.754 1.749 1.754h100.502c.966 0 1.749-.789 1.749-1.754V70.584a1.75 1.75 0 00-1.749-1.758zM89.647 27.26h11.323v1.214H89.647V27.26zm2.453 4.726h6.57l3.712 36.839h-13.99l3.709-36.84zm6.941 77.136h-7.474V95.754h7.474v13.369zm3.503 0h6.583V72.337H79.872c-.962 0-1.75-.785-1.75-1.754V62.88L63.618 74.733a1.75 1.75 0 01-2.86-1.354v-10.51L46.254 74.74c-.52.43-1.242.521-1.855.228a1.751 1.751 0 01-1.001-1.583V62.87L28.843 74.748a1.742 1.742 0 01-1.854.224 1.755 1.755 0 01-.998-1.583V62.88L12.128 74.222v34.896h75.94V93.996c0-.964.783-1.753 1.75-1.753h10.977c.962 0 1.749.784 1.749 1.753v15.127zM92.379 88.325h5.86c.966 0 1.749-.789 1.749-1.754v-5.875c0-.968-.787-1.753-1.75-1.753h-5.86c-.966 0-1.749.789-1.749 1.753v5.876a1.748 1.748 0 001.75 1.753zm1.75-5.871h2.357v2.363h-2.358v-2.363zm-32.73 2.485h6.135c.967 0 1.75.789 1.75 1.754v6.147c0 .964-.783 1.754-1.75 1.754h-6.136a1.75 1.75 0 01-1.749-1.754v-6.148c0-.964.783-1.753 1.75-1.753zm1.75 6.147h2.636v-2.64h-2.637v2.64zM48.042 84.94h-6.136c-.967 0-1.75.789-1.75 1.754v6.147a1.75 1.75 0 001.75 1.754h6.136c.966 0 1.749-.79 1.749-1.754v-6.148c0-.964-.783-1.753-1.75-1.753zm-1.75 6.147h-2.637v-2.64h2.637v2.64zM22.415 84.94h6.136c.967 0 1.75.789 1.75 1.754v6.147c0 .964-.783 1.754-1.75 1.754h-6.136a1.75 1.75 0 01-1.75-1.754v-6.148c0-.964.784-1.753 1.75-1.753zm1.75 6.147H26.8v-2.64h-2.637v2.64zM68.414 17.4H78.71a1.754 1.754 0 000-3.507H68.416a1.75 1.75 0 00-1.75 1.753c0 .97.787 1.754 1.75 1.754zm15.34-3.508h3.456c4.146 0 7.527 3.363 7.522 7.497 0 .97-.788 1.754-1.75 1.754s-1.749-.785-1.749-1.754c0-2.201-1.802-3.99-4.023-3.99h-3.455a1.754 1.754 0 010-3.507z" fill="#0499BA"/></svg>