<svg width="121" height="121" viewBox="0 0 121 121" fill="none" xmlns="http://www.w3.org/2000/svg">
<path fill-rule="evenodd" clip-rule="evenodd" d="M72.9164 12.1387H68.4157C67.4529 12.1387 66.6659 11.3541 66.6666 10.3844C66.6666 9.41552 67.4493 8.63086 68.4157 8.63086L72.9164 8.63159C73.8784 8.63159 74.6655 9.41626 74.6655 10.3851C74.6655 11.354 73.8828 12.1387 72.9164 12.1387ZM79.1684 12.1389H87.644C92.7346 12.1389 96.872 16.2868 96.872 21.3904C96.872 22.3593 97.6591 23.1439 98.6212 23.1439C99.5832 23.1439 100.37 22.3593 100.37 21.3904C100.37 14.3578 94.6586 8.63184 87.6395 8.63184H79.1639C78.1975 8.63184 77.4148 9.4165 77.4148 10.3854C77.4148 11.3543 78.2064 12.1389 79.1684 12.1389ZM110.881 68.8257H105.904L102.187 31.9826H102.721C103.687 31.9826 104.47 31.198 104.47 30.2291V25.5072C104.47 24.5383 103.683 23.7536 102.721 23.7536H87.8942C86.9278 23.7536 86.1451 24.5383 86.1451 25.5072V30.2291C86.1451 31.198 86.9322 31.9826 87.8942 31.9826H88.5854L84.8725 68.8257H81.6277L81.627 59.1843C81.627 58.509 81.2374 57.891 80.6254 57.6018C80.0089 57.3126 79.2914 57.3999 78.7664 57.8257L64.2594 69.6992L64.2602 59.1844C64.2602 58.5091 63.8707 57.8911 63.2586 57.6019C62.6421 57.3127 61.9246 57.4 61.3996 57.8258L46.8977 69.694V59.1843C46.8977 58.509 46.5082 57.891 45.9005 57.6018C45.2928 57.317 44.5709 57.3955 44.0459 57.8257L29.4914 69.6984V59.1844C29.4914 58.5091 29.1019 57.8911 28.4898 57.6019C27.8821 57.3127 27.1558 57.4 26.6352 57.8258L9.27272 72.0363C8.86637 72.3644 8.62988 72.8642 8.62988 73.3898V110.877C8.62988 111.846 9.41257 112.631 10.379 112.631H110.881C111.847 112.631 112.63 111.842 112.63 110.877V70.5843C112.635 69.6154 111.848 68.8263 110.881 68.8263L110.881 68.8257ZM89.647 27.2605H100.97V28.4753H89.647V27.2605ZM92.1005 31.9868H98.6695L102.382 68.826H88.3914L92.1005 31.9868ZM99.0413 109.123H91.5674V95.7541H99.0413V109.123ZM102.544 109.123H109.127V72.3367H79.8719C78.9099 72.3367 78.1228 71.552 78.1228 70.5831V62.8797L63.6172 74.7332C63.0922 75.1634 62.3659 75.2507 61.7582 74.9615C61.1461 74.6723 60.7566 74.0543 60.7566 73.379V62.8693L46.254 74.7383C45.7334 75.1684 45.0115 75.2602 44.3994 74.9666C43.7873 74.6774 43.3978 74.0593 43.3978 73.384V62.87L28.8432 74.7479C28.3183 75.1736 27.5964 75.2653 26.9887 74.9717C26.381 74.6825 25.9915 74.0645 25.9915 73.3892V62.8795L12.128 74.2222V109.118H88.0684V93.9963C88.0684 93.0318 88.8511 92.2427 89.8176 92.2427H100.795C101.757 92.2427 102.544 93.0274 102.544 93.9963V109.123ZM92.3785 88.3251H98.2388C99.2053 88.3251 99.988 87.536 99.988 86.5715V80.6964C99.988 79.7275 99.2009 78.9429 98.2388 78.9429H92.3785C91.4121 78.9429 90.6294 79.7319 90.6294 80.6964V86.5715C90.625 87.5397 91.4121 88.3251 92.3785 88.3251ZM94.1284 82.4537H96.4859V84.8172H94.1284V82.4537ZM61.3983 84.939H67.5345C68.501 84.939 69.2836 85.728 69.2836 86.6925V92.8399C69.2836 93.8044 68.501 94.5935 67.5345 94.5935H61.3983C60.4319 94.5935 59.6492 93.8088 59.6492 92.8399V86.6925C59.6492 85.728 60.4319 84.939 61.3983 84.939ZM63.1482 91.0864H65.7854V88.4468H63.1482V91.0864ZM48.0428 84.939H41.9066C40.9402 84.939 40.1575 85.728 40.1575 86.6925V92.8399C40.1575 93.8088 40.9402 94.5935 41.9066 94.5935H48.0428C49.0093 94.5935 49.792 93.8044 49.792 92.8399V86.6925C49.792 85.728 49.0093 84.939 48.0428 84.939ZM46.293 91.0864H43.6558V88.4468H46.293V91.0864ZM22.415 84.939H28.5511C29.5176 84.939 30.3003 85.728 30.3003 86.6925V92.8399C30.3003 93.8044 29.5176 94.5935 28.5511 94.5935H22.415C21.4485 94.5935 20.6658 93.8088 20.6658 92.8399V86.6925C20.6658 85.728 21.4485 84.939 22.415 84.939ZM24.1641 91.0864H26.8013V88.4468H24.1641V91.0864ZM68.4157 17.3999H78.7107C79.6771 17.3999 80.4598 16.6153 80.4598 15.6464C80.4598 14.6775 79.6727 13.8928 78.7107 13.8928L68.4157 13.8921C67.4493 13.8921 66.6666 14.6768 66.6666 15.6456C66.6659 16.6153 67.4529 17.3999 68.4157 17.3999ZM83.7558 13.8921H87.211C91.3572 13.8921 94.7376 17.2553 94.7325 21.3892C94.7325 22.3581 93.9454 23.1428 92.9833 23.1428C92.0213 23.1428 91.2342 22.3581 91.2342 21.3892C91.2342 19.188 89.4324 17.3992 87.211 17.3992H83.7558C82.7937 17.3992 82.0067 16.6145 82.0067 15.6456C82.0067 14.6768 82.7894 13.8921 83.7558 13.8921Z" fill="#0499BA"/>
</svg>
